<?xml version="1.0" encoding="iso-8859-1"?>
<!-- Uploaded to: SVG Repo, www.svgrepo.com, Generator: SVG Repo Mixer Tools -->
<svg fill="#000000" version="1.1" id="Layer_1" xmlns="http://www.w3.org/2000/svg" xmlns:xlink="http://www.w3.org/1999/xlink" 
	 viewBox="0 0 512.001 512.001" xml:space="preserve">
<g>
	<g>
		<path d="M485.149,274.086h-47.505l-2.68-26.755c17.799-8.434,29.159-21.709,33.758-39.566
			c18.536-71.962-83.329-195.242-87.674-200.455L374.955,0l-6.094,7.308c-1.827,2.192-43.87,52.901-69.885,108.171H90.214
			L74.354,274.086H26.851L9.228,432.698h32.651v55.509c0,13.12,10.674,23.794,23.794,23.794h15.861
			c13.12,0,23.794-10.674,23.794-23.794v-55.509h309.274v55.509c0,13.12,10.674,23.794,23.794,23.794h15.861
			c13.12,0,23.794-10.674,23.794-23.794v-55.509h24.722L485.149,274.086z M299.862,157.344l0.016-0.053
			c2.673-9.464,6.486-19.711,11.333-30.456c19.349-42.896,50.63-84.964,63.746-101.746c9,11.506,26.542,34.894,42.88,62.247
			c29.949,50.14,42.232,90.415,35.521,116.47c-3.772,14.644-13.5,24.84-29.74,31.171c-12.561,4.902-28.935,7.388-48.662,7.388
			c-35.604,0-59.589-7.896-71.288-23.469C293.302,205.095,292.021,184.387,299.862,157.344z M290.981,228.426
			c14.857,19.778,43.11,29.805,83.974,29.805c17.06,0,32.012-1.769,44.628-5.25l2.115,21.104H130.171l13.878-111.018h137.969
			C275.918,190.405,278.913,212.362,290.981,228.426z M104.575,131.347h187.481c-2.174,5.433-4.079,10.728-5.704,15.854h-156.31
			l-15.861,126.885H90.3L104.575,131.347z M89.461,488.206c0,4.371-3.556,7.927-7.927,7.927H65.673
			c-4.371,0-7.927-3.556-7.927-7.927v-55.509h31.715V488.206z M462.184,488.206c0,4.371-3.556,7.927-7.927,7.927h-15.861
			c-4.371,0-7.927-3.556-7.927-7.927v-55.509h31.715V488.206z M26.956,416.831l14.097-126.878h429.894l14.098,126.878H26.956z"/>
	</g>
</g>
<g>
	<g>
		<path d="M105.325,305.807c-26.239,0-47.585,21.346-47.585,47.585c0,26.239,21.346,47.585,47.585,47.585
			s47.585-21.346,47.585-47.585C152.91,327.153,131.563,305.807,105.325,305.807z M105.325,385.109
			c-17.49,0-31.718-14.228-31.718-31.718c0-17.49,14.228-31.718,31.718-31.718c17.49,0,31.718,14.228,31.718,31.718
			C137.043,370.88,122.814,385.109,105.325,385.109z"/>
	</g>
</g>
<g>
	<g>
		<path d="M406.675,305.807c-26.239,0-47.585,21.346-47.585,47.585c0,26.239,21.346,47.585,47.585,47.585
			c26.239,0,47.585-21.346,47.585-47.585C454.26,327.153,432.914,305.807,406.675,305.807z M406.675,385.109
			c-17.49,0-31.718-14.228-31.718-31.718c0-17.49,14.228-31.718,31.718-31.718c17.49,0,31.718,14.228,31.718,31.718
			C438.393,370.88,424.165,385.109,406.675,385.109z"/>
	</g>
</g>
<g>
	<g>
		<rect x="176.694" y="305.809" width="158.606" height="15.867"/>
	</g>
</g>
<g>
	<g>
		<path d="M319.445,385.109v-47.582h-126.89v47.582h-15.857v15.867h158.605v-15.867H319.445z M303.579,385.109h-95.157v-31.715
			h95.157V385.109z"/>
	</g>
</g>
<g>
	<g>
		<rect x="248.064" y="361.322" width="15.861" height="15.867"/>
	</g>
</g>
<g>
	<g>
		<rect x="271.864" y="361.322" width="15.861" height="15.867"/>
	</g>
</g>
<g>
	<g>
		<rect x="224.285" y="361.322" width="15.861" height="15.867"/>
	</g>
</g>
<g>
	<g>
		<path d="M113.252,353.392c0,4.371-3.556,7.927-7.927,7.927c-4.371,0-7.927-3.556-7.927-7.927c0-4.371,3.556-7.927,7.927-7.927
			v-15.867c-13.12,0-23.794,10.674-23.794,23.794c0,13.12,10.674,23.794,23.794,23.794c13.12,0,23.794-10.674,23.794-23.794H113.252
			z"/>
	</g>
</g>
<g>
	<g>
		<path d="M414.602,353.392c0,4.371-3.556,7.927-7.927,7.927c-4.371,0-7.927-3.556-7.927-7.927c0-4.371,3.556-7.927,7.927-7.927
			v-15.867c-13.12,0-23.794,10.674-23.794,23.794c0,13.12,10.674,23.794,23.794,23.794s23.794-10.674,23.794-23.794H414.602z"/>
	</g>
</g>
<g>
	<g>
		<rect x="152.904" y="178.926" width="15.861" height="15.867"/>
	</g>
</g>
<g>
	<g>
		<rect x="152.904" y="202.716" width="15.861" height="15.867"/>
	</g>
</g>
<g>
	<g>
		<rect x="176.694" y="178.926" width="15.861" height="15.867"/>
	</g>
</g>
<g>
	<g>
		<path d="M410.656,128.53c-13.293-22.935-28.416-41.153-29.052-41.916l-6.095-7.312l-6.093,7.314
			c-0.637,0.765-15.751,18.986-29.035,41.925c-18.762,32.396-24.206,57.51-16.179,74.644c7.25,15.477,24.513,23.325,51.308,23.325
			c26.82,0,44.097-7.852,51.349-23.339C434.881,186.035,429.431,160.922,410.656,128.53z M412.488,196.442
			c-4.412,9.423-16.854,14.201-36.979,14.201c-20.098,0-32.526-4.773-36.938-14.187c-5.523-11.782-0.041-33.015,15.436-59.79
			c7.588-13.128,15.989-24.844,21.506-32.131c5.489,7.242,13.834,18.87,21.414,31.95
			C412.492,163.339,418.018,184.631,412.488,196.442z"/>
	</g>
</g>
<g>
	<g>
		<polygon points="374.955,163.061 374.955,178.922 359.093,178.922 359.093,194.789 374.955,194.789 374.955,178.928 
			390.815,178.928 390.815,163.061 		"/>
	</g>
</g>
</svg>