<?xml version="1.0" encoding="iso-8859-1"?>
<!-- Uploaded to: SVG Repo, www.svgrepo.com, Generator: SVG Repo Mixer Tools -->
<svg fill="#000000" version="1.1" id="Layer_1" xmlns="http://www.w3.org/2000/svg" xmlns:xlink="http://www.w3.org/1999/xlink" 
	 viewBox="0 0 485 485" xml:space="preserve">
<g>
	<g>
		<g>
			<path d="M265,150V75h30V20H130v55h30v130H30v100H0v160h485V150H265z M145,60V35h135v25h-30v50h-75V75h62.5V60H145z M45,220h115
				v85H45V220z M175,450H50v-20h125V450z M175,415H50v-25h125V415z M175,375H50v-20h125V375z M210,450h-20V340H35v110H15V320h195
				V450z M210,305h-35V125h75v25h-40V305z M430,410h-32.5v15H430v20h-60v-65h60V410z M470,450h-25v-85h-90v85H225V165h245V450z"/>
			<rect x="67.5" y="240" width="70" height="15"/>
			<rect x="67.5" y="270" width="70" height="15"/>
			<path d="M450,185H245v55h205V185z M435,225H260v-25h175V225z"/>
			<path d="M450,260H245v55h205V260z M435,300H260v-25h175V300z"/>
			<rect x="247.5" y="335" width="95" height="15"/>
			<rect x="247.5" y="370" width="80" height="15"/>
			<rect x="247.5" y="405" width="30" height="15"/>
		</g>
	</g>
</g>
</svg>