<?xml version="1.0" encoding="iso-8859-1"?>
<!-- Uploaded to: SVG Repo, www.svgrepo.com, Generator: SVG Repo Mixer Tools -->
<svg fill="#000000" height="800px" width="800px" version="1.1" id="Layer_1" xmlns="http://www.w3.org/2000/svg" xmlns:xlink="http://www.w3.org/1999/xlink" 
	 viewBox="0 0 512 512" xml:space="preserve">
<g>
	<g>
		<g>
			<path d="M93.867,345.6H59.733c-4.713,0-8.533,3.821-8.533,8.533v34.133c0,4.713,3.82,8.533,8.533,8.533h34.133
				c4.713,0,8.533-3.82,8.533-8.533v-34.133C102.4,349.421,98.579,345.6,93.867,345.6z M85.333,379.733H68.267v-17.067h17.067
				V379.733z"/>
			<path d="M93.867,413.867H59.733c-4.713,0-8.533,3.821-8.533,8.533s3.82,8.533,8.533,8.533h34.133c4.713,0,8.533-3.82,8.533-8.533
				S98.579,413.867,93.867,413.867z"/>
			<path d="M93.867,448H59.733c-4.713,0-8.533,3.82-8.533,8.533s3.82,8.533,8.533,8.533h34.133c4.713,0,8.533-3.82,8.533-8.533
				S98.579,448,93.867,448z"/>
			<path d="M179.2,345.6h-34.133c-4.713,0-8.533,3.821-8.533,8.533v34.133c0,4.713,3.82,8.533,8.533,8.533H179.2
				c4.713,0,8.533-3.82,8.533-8.533v-34.133C187.733,349.421,183.913,345.6,179.2,345.6z M170.667,379.733H153.6v-17.067h17.067
				V379.733z"/>
			<path d="M179.2,413.867h-34.133c-4.713,0-8.533,3.821-8.533,8.533s3.82,8.533,8.533,8.533H179.2c4.713,0,8.533-3.82,8.533-8.533
				S183.913,413.867,179.2,413.867z"/>
			<path d="M179.2,448h-34.133c-4.713,0-8.533,3.82-8.533,8.533s3.82,8.533,8.533,8.533H179.2c4.713,0,8.533-3.82,8.533-8.533
				S183.913,448,179.2,448z"/>
			<path d="M264.533,345.6H230.4c-4.713,0-8.533,3.821-8.533,8.533v34.133c0,4.713,3.82,8.533,8.533,8.533h34.133
				c4.713,0,8.533-3.82,8.533-8.533v-34.133C273.067,349.421,269.246,345.6,264.533,345.6z M256,379.733h-17.067v-17.067H256
				V379.733z"/>
			<path d="M264.533,413.867H230.4c-4.713,0-8.533,3.821-8.533,8.533s3.82,8.533,8.533,8.533h34.133c4.713,0,8.533-3.82,8.533-8.533
				S269.246,413.867,264.533,413.867z"/>
			<path d="M264.533,448H230.4c-4.713,0-8.533,3.82-8.533,8.533s3.82,8.533,8.533,8.533h34.133c4.713,0,8.533-3.82,8.533-8.533
				S269.246,448,264.533,448z"/>
			<path d="M59.733,81.067c4.713,0,8.533-3.82,8.533-8.533c0-9.367,7.7-17.067,17.067-17.067h34.133c14.099,0,25.6-11.501,25.6-25.6
				s-11.5-25.6-25.6-25.6H85.333c-4.713,0-8.533,3.82-8.533,8.533s3.82,8.533,8.533,8.533h34.133c4.674,0,8.533,3.859,8.533,8.533
				s-3.859,8.533-8.533,8.533H85.333C66.541,38.4,51.2,53.74,51.2,72.533C51.2,77.246,55.021,81.067,59.733,81.067z"/>
			<path d="M196.267,81.067c4.713,0,8.533-3.82,8.533-8.533c0-9.367,7.7-17.067,17.067-17.067h25.6c14.099,0,25.6-11.501,25.6-25.6
				s-11.501-25.6-25.6-25.6h-25.6c-4.713,0-8.533,3.82-8.533,8.533s3.82,8.533,8.533,8.533h25.6c4.674,0,8.533,3.859,8.533,8.533
				s-3.859,8.533-8.533,8.533h-25.6c-18.793,0-34.133,15.341-34.133,34.133C187.733,77.246,191.554,81.067,196.267,81.067z"/>
			<path d="M409.6,166.4h-34.133c-4.713,0-8.533,3.821-8.533,8.533v34.133c0,4.713,3.82,8.533,8.533,8.533H409.6
				c4.713,0,8.533-3.82,8.533-8.533v-34.133C418.133,170.221,414.313,166.4,409.6,166.4z M401.067,200.533H384v-17.067h17.067
				V200.533z"/>
			<path d="M409.6,234.667h-34.133c-4.713,0-8.533,3.82-8.533,8.533s3.82,8.533,8.533,8.533H409.6c4.713,0,8.533-3.82,8.533-8.533
				S414.313,234.667,409.6,234.667z"/>
			<path d="M409.6,277.333h-34.133c-4.713,0-8.533,3.82-8.533,8.533V320c0,4.713,3.82,8.533,8.533,8.533H409.6
				c4.713,0,8.533-3.82,8.533-8.533v-34.133C418.133,281.154,414.313,277.333,409.6,277.333z M401.067,311.467H384V294.4h17.067
				V311.467z"/>
			<path d="M409.6,345.6h-34.133c-4.713,0-8.533,3.821-8.533,8.533c0,4.713,3.82,8.533,8.533,8.533H409.6
				c4.713,0,8.533-3.821,8.533-8.533C418.133,349.421,414.313,345.6,409.6,345.6z"/>
			<path d="M409.6,388.267h-34.133c-4.713,0-8.533,3.82-8.533,8.533v34.133c0,4.713,3.82,8.533,8.533,8.533H409.6
				c4.713,0,8.533-3.82,8.533-8.533V396.8C418.133,392.087,414.313,388.267,409.6,388.267z M401.067,422.4H384v-17.067h17.067V422.4
				z"/>
			<path d="M409.6,456.533h-34.133c-4.713,0-8.533,3.82-8.533,8.533s3.82,8.533,8.533,8.533H409.6c4.713,0,8.533-3.82,8.533-8.533
				S414.313,456.533,409.6,456.533z"/>
			<path d="M503.467,302.933h-34.133v-153.6H486.4c4.713,0,8.533-3.82,8.533-8.533v-34.133c0-4.713-3.82-8.533-8.533-8.533H298.667
				c-4.713,0-8.533,3.821-8.533,8.533V140.8c0,4.713,3.82,8.533,8.533,8.533h17.067v153.6H230.4v-153.6h8.533
				c4.713,0,8.533-3.82,8.533-8.533v-34.133c0-4.713-3.82-8.533-8.533-8.533H153.6c-4.713,0-8.533,3.821-8.533,8.533V140.8
				c0,4.713,3.821,8.533,8.533,8.533h8.533v153.6H93.867v-153.6h8.533c4.713,0,8.533-3.82,8.533-8.533v-34.133
				c0-4.713-3.82-8.533-8.533-8.533H17.067c-4.713,0-8.533,3.821-8.533,8.533V140.8c0,4.713,3.82,8.533,8.533,8.533H25.6v153.6
				H8.533c-4.713,0-8.533,3.82-8.533,8.533V499.2c0,4.713,3.82,8.533,8.533,8.533h315.733H460.8h42.667
				c4.713,0,8.533-3.82,8.533-8.533V311.467C512,306.754,508.18,302.933,503.467,302.933z M307.2,115.2h170.667v17.067H460.8
				H324.267H307.2V115.2z M162.133,115.2H230.4v17.067h-8.533h-51.2h-8.533V115.2z M179.2,149.333h34.133v153.6H179.2V149.333z
				 M25.6,115.2h68.267v17.067h-8.533h-51.2H25.6V115.2z M42.667,149.333H76.8v153.6H42.667V149.333z M17.067,320h17.067h51.2
				h85.333h51.2h93.867v170.667H17.067V320z M332.8,311.467V149.333h119.467v162.133v179.2H332.8V311.467z M494.933,490.667h-25.6
				V320h25.6V490.667z"/>
		</g>
	</g>
</g>
</svg>