<?xml version="1.0" encoding="iso-8859-1"?>
<!-- Uploaded to: SVG Repo, www.svgrepo.com, Generator: SVG Repo Mixer Tools -->
<svg fill="#000000" version="1.1" id="Layer_1" xmlns="http://www.w3.org/2000/svg" xmlns:xlink="http://www.w3.org/1999/xlink" 
	 viewBox="0 0 290.626 290.626" xml:space="preserve">
<g>
	<g>
		<g>
			<path d="M285.938,281.25V150h-56.273c-0.108-20.569-2.784-41.03-7.936-60.938H225v-9.375h-5.841h-35.198h-5.836v9.375h3.272
				c-5.156,19.908-7.828,40.369-7.936,60.938h-56.297c-0.108-20.569-2.784-41.03-7.936-60.938h3.272v-9.375h-5.841H71.461h-5.836
				v9.375h3.272c-5.156,19.908-7.828,40.369-7.936,60.938H4.688v131.25H0v9.375h4.688h281.25h4.688v-9.375H285.938z M191.062,89.063
				h21.001c1.256,4.655,2.339,9.347,3.309,14.063h-27.619C188.723,98.41,189.811,93.719,191.062,89.063z M186.108,112.5h30.905
				c2.039,12.389,3.225,24.914,3.295,37.5h-37.491C182.887,137.414,184.069,124.889,186.108,112.5z M78.562,89.063h21.001
				c1.256,4.655,2.339,9.347,3.309,14.063H75.253C76.223,98.41,77.311,93.719,78.562,89.063z M73.608,112.5h30.905
				c2.039,12.389,3.225,24.914,3.295,37.5H70.317C70.388,137.414,71.569,124.889,73.608,112.5z M140.625,281.251h-32.813v-60.938
				h32.813V281.251z M182.813,281.251H150v-60.938h32.813V281.251z M210.938,281.25h-18.75v-60.938h9.375v-9.375h-112.5v9.375h9.375
				v60.938h-18.75v-82.172l65.625-20.723l65.625,20.723V281.25z M276.565,281.25h-56.252v-79.214l12.652,3.994l2.827-8.939
				l-90.478-28.57l-90.473,28.57l2.827,8.939l12.647-3.994v79.214h-56.25V159.375H60.94h56.25h56.25h56.25h46.875V281.25z"/>
			<rect x="154.688" y="239.063" width="9.375" height="14.063"/>
			<rect x="126.563" y="239.063" width="9.375" height="14.063"/>
			<rect x="112.5" y="192.188" width="9.375" height="9.375"/>
			<rect x="131.25" y="192.188" width="9.375" height="9.375"/>
			<rect x="150" y="192.188" width="9.375" height="9.375"/>
			<rect x="168.75" y="192.188" width="9.375" height="9.375"/>
			<path d="M93.75,51.563c0-2.583,2.105-4.688,4.688-4.688H150h9.375h38.362c-0.525,1.472-0.862,3.037-0.862,4.688v18.75h9.375
				v-18.75c0-2.583,2.105-4.688,4.688-4.688H225h14.063c7.753,0,14.063-6.309,14.063-14.063c0-7.754-6.309-14.063-14.063-14.063
				h-23.438c-2.583,0-4.688-2.105-4.688-4.688c0-2.583,2.105-4.688,4.688-4.688h65.625V0h-65.625
				c-7.753,0-14.063,6.309-14.063,14.063c0,7.754,6.309,14.063,14.063,14.063h23.438c2.583,0,4.688,2.105,4.688,4.688
				c0,2.583-2.105,4.688-4.688,4.688H225h-14.063h-38.362c0.525-1.472,0.862-3.037,0.862-4.688c0-7.753-6.309-14.063-14.063-14.063
				h-23.438c-2.583,0-4.688-2.105-4.688-4.688s2.105-4.688,4.688-4.688h42.188V0h-42.188c-7.753,0-14.063,6.309-14.063,14.063
				c0,7.754,6.309,14.063,14.063,14.063h23.438c2.583,0,4.688,2.105,4.688,4.688c0,2.583-2.105,4.688-4.688,4.688H150H98.438
				c-7.753,0-14.063,6.309-14.063,14.063v18.75h9.375V51.563z"/>
		</g>
	</g>
</g>
</svg>